# xmcd
#
# Track frame offsets:
#	150
#	14051
#	28621
#	41638
#	54609
#	68907
#	83533
#	96055
#	110206
#	124686
#	138476
#	154126
#
# Disc length: 2202 seconds
#
# Revision: 1
# Processed by: cddbd v1.5.2PL0 Copyright (c) Steve Scherf et al.
# Submitted via: audiograbber 1.83.01
#
DISCID=a308980c
DTITLE=Νίκος Ξανθόπουλος - Χρυσή δισκοθήκη Νίκος Ξανθόπουλος
DYEAR=1900
DGENRE=
TTITLE0=Πετραδάκι πετραδάκι
TTITLE1=Τώρα κλαίς γιατί κλαίς
TTITLE2=Στού Αποστόλη το κουτούκι
TTITLE3=Μην κάνεις όνειρα τρελλά
TTITLE4=Ρίξε στο γιαλί φαρμάκι
TTITLE5=Τι να την κάνεις τη ζωή
TTITLE6=Ορκο βαρύ σού κάνω
TTITLE7=Αραμπάς περνά
TTITLE8=Φτωχογειτονιά αγάπη μου
TTITLE9=Αγάπησα καί πόνεσα
TTITLE10=Αφού αμαρτήσανε τα δυό σου χείλη
TTITLE11=Στη φωτιά θα πέσω
EXTD=
EXTT0=
EXTT1=
EXTT2=
EXTT3=
EXTT4=
EXTT5=
EXTT6=
EXTT7=
EXTT8=
EXTT9=
EXTT10=
EXTT11=
PLAYORDER=
